<?xml version="1.0" encoding="iso-8859-1"?>
<!-- Uploaded to: SVG Repo, www.svgrepo.com, Generator: SVG Repo Mixer Tools -->
<svg fill="#000000" height="800px" width="800px" version="1.1" id="Layer_1" xmlns="http://www.w3.org/2000/svg" xmlns:xlink="http://www.w3.org/1999/xlink" 
	 viewBox="0 0 512 512" xml:space="preserve">
<g>
	<g>
		<path d="M307.819,0H204.181C137.153,0,82.623,54.53,82.623,121.558v268.883C82.623,457.47,137.153,512,204.181,512h103.638
			c67.027,0,121.558-54.53,121.558-121.558V121.558C429.377,54.53,374.847,0,307.819,0z M118.343,121.558
			c0-47.331,38.507-85.837,85.837-85.837h33.953v44.243c-8.4,1.456-14.794,8.762-14.794,17.579v39.272
			c0,8.816,6.394,16.123,14.794,17.579v44.243h-119.79V121.558z M393.657,390.442c0,47.331-38.506,85.837-85.837,85.837H204.181
			c-47.331,0-85.837-38.506-85.837-85.837V234.358h275.313V390.442z M393.657,198.636H273.855v-44.242
			c8.406-1.451,14.806-8.76,14.806-17.581v-39.27c0-8.821-6.4-16.129-14.806-17.581V35.721h33.965
			c47.331,0,85.837,38.506,85.837,85.837V198.636z"/>
	</g>
</g>
</svg>